<?xml version="1.0" encoding="UTF-8" standalone="no"?>
<svg
   xmlns:dc="http://purl.org/dc/elements/1.1/"
   xmlns:cc="http://creativecommons.org/ns#"
   xmlns:rdf="http://www.w3.org/1999/02/22-rdf-syntax-ns#"
   xmlns:svg="http://www.w3.org/2000/svg"
   xmlns="http://www.w3.org/2000/svg"
   xmlns:xlink="http://www.w3.org/1999/xlink"
   xmlns:sodipodi="http://sodipodi.sourceforge.net/DTD/sodipodi-0.dtd"
   xmlns:inkscape="http://www.inkscape.org/namespaces/inkscape"
   width="32"
   height="32"
   version="1.1"
   id="svg12"
   sodipodi:docname="compass.svg"
   inkscape:version="1.0.2 (e86c870879, 2021-01-15)">
  <metadata
     id="metadata18">
    <rdf:RDF>
      <cc:Work
         rdf:about="">
        <dc:format>image/svg+xml</dc:format>
        <dc:type
           rdf:resource="http://purl.org/dc/dcmitype/StillImage" />
      </cc:Work>
    </rdf:RDF>
  </metadata>
  <defs
     id="defs16">
    <linearGradient
       inkscape:collect="always"
       id="linearGradient849">
      <stop
         style="stop-color:#7137c8;stop-opacity:1"
         offset="0"
         id="stop844" />
      <stop
         style="stop-color:#7137c8;stop-opacity:0.35294119"
         offset="1"
         id="stop846" />
    </linearGradient>
    <linearGradient
       inkscape:collect="always"
       xlink:href="#linearGradient849"
       id="linearGradient863"
       x1="17"
       y1="2.9999998"
       x2="16"
       y2="29"
       gradientUnits="userSpaceOnUse" />
    <linearGradient
       inkscape:collect="always"
       xlink:href="#linearGradient849"
       id="linearGradient856"
       x1="44"
       y1="16"
       x2="43.130913"
       y2="25.998615"
       gradientUnits="userSpaceOnUse" />
    <linearGradient
       inkscape:collect="always"
       xlink:href="#linearGradient849"
       id="linearGradient851"
       gradientUnits="userSpaceOnUse"
       x1="16"
       y1="7.9999995"
       x2="16"
       y2="23" />
    <linearGradient
       inkscape:collect="always"
       xlink:href="#linearGradient849"
       id="linearGradient859"
       x1="43"
       y1="13"
       x2="43"
       y2="29"
       gradientUnits="userSpaceOnUse" />
  </defs>
  <sodipodi:namedview
     pagecolor="#ffffff"
     bordercolor="#666666"
     borderopacity="1"
     objecttolerance="10"
     gridtolerance="10"
     guidetolerance="10"
     inkscape:pageopacity="0"
     inkscape:pageshadow="2"
     inkscape:window-width="1920"
     inkscape:window-height="1021"
     id="namedview14"
     showgrid="false"
     inkscape:zoom="9.8125003"
     inkscape:cx="30.08165"
     inkscape:cy="13.617836"
     inkscape:window-x="0"
     inkscape:window-y="0"
     inkscape:window-maximized="1"
     inkscape:current-layer="svg12"
     inkscape:document-rotation="0"
     inkscape:lockguides="false">
    <inkscape:grid
       type="xygrid"
       id="grid880"
       originx="32"
       originy="9.9999997" />
  </sodipodi:namedview>
  <g
     id="compass">
    <path
       style="clip-rule:evenodd;fill:#ffffc1;fill-opacity:0;fill-rule:evenodd;stroke-width:1.00213;stroke-linejoin:round;stroke-miterlimit:1.41421"
       d="M 0,0 V 32 H 32 V 0 Z"
       id="rect817"
       inkscape:connector-curvature="0" />
    <path
       d="m 16.178002,23.775843 a 0.68597882,0.68597779 0 0 0 0.544283,-0.392466 l 3.877655,-7.755241 a 5.1686634,5.1686556 0 0 0 -0.400947,-5.370516 5.0593308,5.0593232 0 0 0 -8.597257,5.265518 l 3.949427,7.898469 a 0.64092125,0.6409203 0 0 0 0.626839,0.354236 z m -2.80422,-10.6331 a 2.753314,2.7533099 0 1 1 2.753315,2.753309 2.7564058,2.7564017 0 0 1 -2.753315,-2.753309 z"
       id="path6"
       style="fill:url(#linearGradient851);fill-opacity:1;stroke-width:0.239641" />
    <path
       d="M 25.192358,6.807641 C 22.737085,4.352209 19.472326,3 16.000001,3 12.527674,3 9.262915,4.352209 6.807641,6.807641 4.352209,9.263073 3,12.527674 3,16.000001 c 0,3.472325 1.352209,6.736924 3.807641,9.192356 2.455274,2.455273 5.720033,3.807641 9.19236,3.807641 3.472325,0 6.737084,-1.352368 9.192357,-3.807641 2.455273,-2.455432 3.807641,-5.720032 3.807641,-9.192357 0,-3.472327 -1.352368,-6.737086 -3.807641,-9.192359 z m -0.726489,17.658228 c -2.261195,2.261351 -5.26792,3.506921 -8.465868,3.506921 -3.198108,0 -6.204676,-1.245569 -8.466029,-3.506921 -2.261352,-2.261195 -3.506604,-5.26792 -3.506604,-8.465868 0,-3.198108 1.245252,-6.2046755 3.506604,-8.466029 2.261353,-2.261352 5.267921,-3.506604 8.466029,-3.506604 3.197948,0 6.204673,1.245252 8.465868,3.506604 2.261352,2.2613535 3.506762,5.267921 3.506762,8.466029 0,3.197948 -1.24541,6.204673 -3.506762,8.465868 z m 0,0"
       id="path2-36"
       style="fill:url(#linearGradient863);fill-opacity:1;stroke-width:0.0406249" />
  </g>
  <g
     id="22-22-compass">
    <path
       style="clip-rule:evenodd;fill:#ffffc1;fill-opacity:0;fill-rule:evenodd;stroke-width:0.688964;stroke-linejoin:round;stroke-miterlimit:1.41421"
       d="M 32,9.9999997 V 32 H 54 V 9.9999997 Z"
       id="rect817-5"
       inkscape:connector-curvature="0" />
    <path
       d="m 43.130911,25.998616 a 0.44034967,0.44034967 0 0 0 0.349396,-0.25194 l 2.489174,-4.978318 a 3.3179142,3.3179142 0 0 0 -0.257379,-3.447495 3.247731,3.2477309 0 0 0 -5.518833,3.380091 l 2.535258,5.070269 a 0.41142597,0.41142596 0 0 0 0.402384,0.227393 z m -1.800109,-6.825707 a 1.7674323,1.7674323 0 1 1 1.767433,1.767435 1.7694163,1.7694163 0 0 1 -1.767433,-1.767435 z"
       id="path6-6"
       style="fill:url(#linearGradient856);fill-opacity:1;stroke-width:0.153839" />
    <path
       d="m 43.008899,29.999999 c -8.0108,0 -12.021166,-9.684655 -6.357367,-15.348468 5.663807,-5.6637987 15.348492,-1.653432 15.348492,6.357373 -0.006,4.963295 -4.027787,8.985505 -8.991125,8.991095 z m 0,-16.906201 c -2.001044,0 -3.318965,0.489836 -4.628899,1.504 -1.892566,1.465256 -3.096939,3.613532 -3.222,6.033475 -0.06234,1.205391 0.211267,2.6764 0.721,3.752759 0.405119,0.855428 0.932826,1.610807 1.742,2.420067 0.652486,0.6524 1.150918,0.96815 1.839,1.3187 1.133521,0.57742 2.223899,0.82709 3.501136,0.817 2.253903,-0.0176 4.143194,-0.85371 5.696864,-2.4512 0.645932,-0.66409 1.181749,-1.417891 1.534,-2.277874 0.390208,-0.952611 0.663,-2.035484 0.663,-3.270981 -0.0023,-2.036239 -0.688842,-3.724523 -1.851,-5.132565 -1.481768,-1.79523 -3.398898,-2.710427 -5.995101,-2.713381 z"
       id="path2-7-5-53-5-0-7-2-2"
       style="fill:url(#linearGradient859);fill-opacity:1;stroke-width:0.299703"
       sodipodi:nodetypes="cscccsssssssscsc" />
  </g>
</svg>
