<?xml version="1.0" encoding="UTF-8" standalone="no"?>
<!-- Created with Inkscape (http://www.inkscape.org/) -->

<svg
   xmlns:dc="http://purl.org/dc/elements/1.1/"
   xmlns:cc="http://creativecommons.org/ns#"
   xmlns:rdf="http://www.w3.org/1999/02/22-rdf-syntax-ns#"
   xmlns:svg="http://www.w3.org/2000/svg"
   xmlns="http://www.w3.org/2000/svg"
   xmlns:sodipodi="http://sodipodi.sourceforge.net/DTD/sodipodi-0.dtd"
   xmlns:inkscape="http://www.inkscape.org/namespaces/inkscape"
   id="svg3738"
   height="24"
   width="24"
   version="1.1"
   inkscape:version="0.92.4 (5da689c313, 2019-01-14)"
   sodipodi:docname="kteatime.svgz">
  <defs
     id="defs8" />
  <sodipodi:namedview
     pagecolor="#ffffff"
     bordercolor="#000000"
     borderopacity="1"
     objecttolerance="10"
     gridtolerance="10"
     guidetolerance="10"
     inkscape:pageopacity="0.58823529"
     inkscape:pageshadow="2"
     inkscape:window-width="1280"
     inkscape:window-height="977"
     id="namedview6"
     showgrid="false"
     inkscape:zoom="12.342227"
     inkscape:cx="10.364231"
     inkscape:cy="13.186609"
     inkscape:window-x="0"
     inkscape:window-y="0"
     inkscape:window-maximized="1"
     inkscape:current-layer="svg3738"
     inkscape:snap-grids="true"
     inkscape:snap-to-guides="true"
     showguides="true"
     inkscape:guide-bbox="true">
    <inkscape:grid
       type="xygrid"
       id="grid2985"
       empspacing="5"
       visible="true"
       enabled="true"
       snapvisiblegridlinesonly="true" />
  </sodipodi:namedview>
  <metadata
     id="metadata13">
    <rdf:RDF>
      <cc:Work
         rdf:about="">
        <dc:format>image/svg+xml</dc:format>
        <dc:type
           rdf:resource="http://purl.org/dc/dcmitype/StillImage" />
        <dc:title></dc:title>
      </cc:Work>
    </rdf:RDF>
  </metadata>
  <g
     id="kteatime">
    <rect
       y="0"
       x="0"
       height="24"
       width="24"
       id="rect2991"
       style="opacity:0.01000001;fill:#000000;fill-opacity:0.00392157;stroke:none" />
    <g
       transform="translate(28,-15)"
       style="opacity:0.3"
       id="g3775">
      <path
         inkscape:connector-curvature="0"
         style="fill:#000000;fill-opacity:1;stroke:none;opacity:0"
         d="m -23.975,24.105725 c 0,3.441438 5.225,7.061275 5.225,7.061275 0,0 1.785343,0 2.75,0 0.965758,0 2.75,0 2.75,0 0,0 5.230882,-3.620937 5.230882,-7.061275 z"
         id="path3960-4-4"
         sodipodi:nodetypes="ccsccc" />
      <path
         inkscape:connector-curvature="0"
         style="fill:#000000;fill-opacity:1;stroke:none;opacity:0"
         d="M -27,32.166667 C -27,32.944478 -24,34 -20,34 c 1.240232,0 2.591741,0 4.000001,0 1.423135,0 2.748939,0 3.999999,0 4,0 7,-1.058001 7,-1.833333 z"
         id="path3960-7-4-3"
         sodipodi:nodetypes="cssscc" />
      <path
         inkscape:connector-curvature="0"
         style="fill:none;stroke:#000000;stroke-width:1;stroke-miterlimit:4;stroke-opacity:1;stroke-dasharray:none;opacity:0"
         d="m -11.346469,29.028688 c 1.009408,0.724743 3.041424,-0.198149 3.766165,-1.207561 0.724743,-1.009409 0.36214,-2.31634 -1.141644,-2.44783 z"
         id="path3960-1-1-1-2"
         sodipodi:nodetypes="cscc" />
    </g>
    <g
       transform="translate(28,1)"
       id="g3780">
      <path
         inkscape:connector-curvature="0"
         style="fill:#9966cc;fill-opacity:1;stroke:none"
         d="m -23.975,7.105725 c 0,3.441438 5.225,7.061275 5.225,7.061275 0,0 1.785343,0 2.75,0 0.965758,0 2.75,0 2.75,0 0,0 5.230882,-3.620937 5.230882,-7.061275 z"
         id="path3960-4"
         sodipodi:nodetypes="ccsccc" />
      <path
         inkscape:connector-curvature="0"
         style="fill:#9966cc;fill-opacity:1;stroke:none"
         d="M -27,15.166667 C -27,15.944478 -24,17 -20,17 c 1.240232,0 2.591741,0 4.000001,0 1.423135,0 2.748939,0 3.999999,0 4,0 7,-1.058001 7,-1.833333 z"
         id="path3960-7-4"
         sodipodi:nodetypes="cssscc" />
      <path
         inkscape:connector-curvature="0"
         style="fill:none;stroke:#9966cc;stroke-width:1;stroke-miterlimit:4;stroke-opacity:1;stroke-dasharray:none"
         d="m -11.346469,12.028688 c 1.009408,0.724743 3.041424,-0.198149 3.766165,-1.207561 0.724743,-1.009409 0.36214,-2.31634 -1.141644,-2.44783 z"
         id="path3960-1-1-1"
         sodipodi:nodetypes="cscc" />
    </g>
  </g>
</svg>
